{
    "asset" : {
        "generator" : "Khronos glTF Blender I/O v1.7.33",
        "version" : "2.0"
    },
    "scene" : 0,
    "scenes" : [
        {
            "name" : "Scene",
            "nodes" : [
                0
            ]
        }
    ],
    "nodes" : [
        {
            "mesh" : 0,
            "name" : "Cube",
            "translation" : [
                0,
                2.079184055328369,
                0
            ]
        }
    ],
    "materials" : [
        {
            "doubleSided" : true,
            "name" : "WarnaObj",
            "pbrMetallicRoughness" : {
                "baseColorFactor" : [
                    0.03429168462753296,
                    0.31305620074272156,
                    0.8000000715255737,
                    1
                ],
                "metallicFactor" : 0,
                "roughnessFactor" : 0.4000000059604645
            }
        },
        {
            "doubleSided" : true,
            "name" : "mata",
            "pbrMetallicRoughness" : {
                "baseColorFactor" : [
                    0.09232839941978455,
                    0.0809272900223732,
                    0.42004290223121643,
                    1
                ],
                "metallicFactor" : 0,
                "roughnessFactor" : 0.5
            }
        },
        {
            "doubleSided" : true,
            "name" : "mata1",
            "pbrMetallicRoughness" : {
                "baseColorFactor" : [
                    0.6738464832305908,
                    0.6726455688476562,
                    0.42609158158302307,
                    1
                ],
                "metallicFactor" : 0,
                "roughnessFactor" : 0.5
            }
        }
    ],
    "meshes" : [
        {
            "name" : "Cube",
            "primitives" : [
                {
                    "attributes" : {
                        "POSITION" : 0,
                        "NORMAL" : 1,
                        "TEXCOORD_0" : 2
                    },
                    "indices" : 3,
                    "material" : 0
                },
                {
                    "attributes" : {
                        "POSITION" : 4,
                        "NORMAL" : 5,
                        "TEXCOORD_0" : 6
                    },
                    "indices" : 7,
                    "material" : 1
                },
                {
                    "attributes" : {
                        "POSITION" : 8,
                        "NORMAL" : 9,
                        "TEXCOORD_0" : 10
                    },
                    "indices" : 11,
                    "material" : 2
                }
            ]
        }
    ],
    "accessors" : [
        {
            "bufferView" : 0,
            "componentType" : 5126,
            "count" : 385,
            "max" : [
                0.8177558183670044,
                1.0317144393920898,
                0.6468390226364136
            ],
            "min" : [
                -0.8177558183670044,
                -2.128511667251587,
                -0.7249787449836731
            ],
            "type" : "VEC3"
        },
        {
            "bufferView" : 1,
            "componentType" : 5126,
            "count" : 385,
            "type" : "VEC3"
        },
        {
            "bufferView" : 2,
            "componentType" : 5126,
            "count" : 385,
            "type" : "VEC2"
        },
        {
            "bufferView" : 3,
            "componentType" : 5123,
            "count" : 1848,
            "type" : "SCALAR"
        },
        {
            "bufferView" : 4,
            "componentType" : 5126,
            "count" : 74,
            "max" : [
                0.5828012228012085,
                0.5054795145988464,
                0.6080015897750854
            ],
            "min" : [
                -0.5828012228012085,
                -0.9195330739021301,
                -0.9933009147644043
            ],
            "type" : "VEC3"
        },
        {
            "bufferView" : 5,
            "componentType" : 5126,
            "count" : 74,
            "type" : "VEC3"
        },
        {
            "bufferView" : 6,
            "componentType" : 5126,
            "count" : 74,
            "type" : "VEC2"
        },
        {
            "bufferView" : 7,
            "componentType" : 5123,
            "count" : 360,
            "type" : "SCALAR"
        },
        {
            "bufferView" : 8,
            "componentType" : 5126,
            "count" : 27,
            "max" : [
                0.5325378775596619,
                0.49295535683631897,
                0.6642571687698364
            ],
            "min" : [
                -0.5325378775596619,
                -0.2497829645872116,
                0.29959040880203247
            ],
            "type" : "VEC3"
        },
        {
            "bufferView" : 9,
            "componentType" : 5126,
            "count" : 27,
            "type" : "VEC3"
        },
        {
            "bufferView" : 10,
            "componentType" : 5126,
            "count" : 27,
            "type" : "VEC2"
        },
        {
            "bufferView" : 11,
            "componentType" : 5123,
            "count" : 120,
            "type" : "SCALAR"
        }
    ],
    "bufferViews" : [
        {
            "buffer" : 0,
            "byteLength" : 4620,
            "byteOffset" : 0
        },
        {
            "buffer" : 0,
            "byteLength" : 4620,
            "byteOffset" : 4620
        },
        {
            "buffer" : 0,
            "byteLength" : 3080,
            "byteOffset" : 9240
        },
        {
            "buffer" : 0,
            "byteLength" : 3696,
            "byteOffset" : 12320
        },
        {
            "buffer" : 0,
            "byteLength" : 888,
            "byteOffset" : 16016
        },
        {
            "buffer" : 0,
            "byteLength" : 888,
            "byteOffset" : 16904
        },
        {
            "buffer" : 0,
            "byteLength" : 592,
            "byteOffset" : 17792
        },
        {
            "buffer" : 0,
            "byteLength" : 720,
            "byteOffset" : 18384
        },
        {
            "buffer" : 0,
            "byteLength" : 324,
            "byteOffset" : 19104
        },
        {
            "buffer" : 0,
            "byteLength" : 324,
            "byteOffset" : 19428
        },
        {
            "buffer" : 0,
            "byteLength" : 216,
            "byteOffset" : 19752
        },
        {
            "buffer" : 0,
            "byteLength" : 240,
            "byteOffset" : 19968
        }
    ],
    "buffers" : [
        {
            "byteLength" : 20208,
            "uri" : "data:application/octet-stream;base64,"
        }
    ]
}
