{
    "asset" : {
        "generator" : "Khronos glTF Blender I/O v1.7.33",
        "version" : "2.0"
    },
    "scene" : 0,
    "scenes" : [
        {
            "name" : "Scene",
            "nodes" : [
                0,
                1,
                2,
                3,
                4,
                5,
                6,
                7,
                8,
                9,
                10,
                11
            ]
        }
    ],
    "nodes" : [
        {
            "mesh" : 0,
            "name" : "Cylinder.001",
            "rotation" : [
                0.9961947202682495,
                0.08715573698282242,
                0,
                -1.6162896088189882e-07
            ],
            "scale" : [
                0.04107154160737991,
                0.2026979625225067,
                0.03875114023685455
            ],
            "translation" : [
                2.0594754219055176,
                0.7410992383956909,
                -0.7743515968322754
            ]
        },
        {
            "mesh" : 1,
            "name" : "Cylinder",
            "rotation" : [
                0,
                0,
                -0.08715573698282242,
                0.9961947202682495
            ],
            "scale" : [
                0.04107154160737991,
                0.2026979625225067,
                0.03875114023685455
            ],
            "translation" : [
                -2.060120105743408,
                0.7410992383956909,
                0.8550132513046265
            ]
        },
        {
            "mesh" : 2,
            "name" : "Cube.009",
            "rotation" : [
                -0.04603077471256256,
                0,
                0,
                0.9989400506019592
            ],
            "scale" : [
                0.6530647277832031,
                0.38729798793792725,
                0.15589193999767303
            ],
            "translation" : [
                0.006022773217409849,
                1.799297571182251,
                -0.30085039138793945
            ]
        },
        {
            "mesh" : 3,
            "name" : "Cube.008",
            "rotation" : [
                -0.04603077471256256,
                0,
                0,
                0.9989400506019592
            ],
            "scale" : [
                0.5772916078567505,
                0.38729798793792725,
                0.15589193999767303
            ],
            "translation" : [
                1.2270835638046265,
                1.799297571182251,
                -0.30085039138793945
            ]
        },
        {
            "mesh" : 4,
            "name" : "Cube.007",
            "rotation" : [
                -0.04603077471256256,
                0,
                0,
                0.9989400506019592
            ],
            "scale" : [
                0.5772916078567505,
                0.38729798793792725,
                0.15589193999767303
            ],
            "translation" : [
                -1.222402811050415,
                1.799297571182251,
                -0.30085039138793945
            ]
        },
        {
            "mesh" : 5,
            "name" : "Cube.005",
            "scale" : [
                0.611991822719574,
                -0.0926261842250824,
                0.738117516040802
            ],
            "translation" : [
                -0.00010178028605878353,
                1.3524847030639648,
                0.27438122034072876
            ]
        },
        {
            "mesh" : 6,
            "name" : "Cube.006",
            "scale" : [
                0.5952930450439453,
                -0.0926261842250824,
                0.738117516040802
            ],
            "translation" : [
                1.2207074165344238,
                1.3481853008270264,
                0.2757934033870697
            ]
        },
        {
            "mesh" : 7,
            "name" : "Cube.002",
            "scale" : [
                0.5952930450439453,
                -0.0926261842250824,
                0.738117516040802
            ],
            "translation" : [
                -1.2250663042068481,
                1.3481853008270264,
                0.2757934033870697
            ]
        },
        {
            "mesh" : 8,
            "name" : "Cube.003",
            "scale" : [
                0.19951771199703217,
                0.4009285569190979,
                0.9300945997238159
            ],
            "translation" : [
                -2.0102882385253906,
                1.4075751304626465,
                0.06537699699401855
            ]
        },
        {
            "mesh" : 9,
            "name" : "Cube.004",
            "rotation" : [
                0,
                0.7071068286895752,
                0,
                0.7071068286895752
            ],
            "scale" : [
                0.19951771199703217,
                0.46365591883659363,
                1.8207554817199707
            ],
            "translation" : [
                0.004612775985151529,
                1.496638298034668,
                -0.6641649007797241
            ]
        },
        {
            "mesh" : 10,
            "name" : "Cube.001",
            "scale" : [
                0.19951771199703217,
                0.4009285569190979,
                0.9300945997238159
            ],
            "translation" : [
                2.0136003494262695,
                1.4075751304626465,
                0.06537699699401855
            ]
        },
        {
            "mesh" : 11,
            "name" : "Cube",
            "scale" : [
                2.210204839706421,
                2.210204839706421,
                2.210204839706421
            ],
            "translation" : [
                -0.0012388264294713736,
                0.9021884799003601,
                0.04849287122488022
            ]
        }
    ],
    "materials" : [
        {
            "doubleSided" : true,
            "name" : "Material",
            "pbrMetallicRoughness" : {
                "baseColorFactor" : [
                    0.800000011920929,
                    0.800000011920929,
                    0.800000011920929,
                    1
                ],
                "metallicFactor" : 0,
                "roughnessFactor" : 0.5
            }
        }
    ],
    "meshes" : [
        {
            "name" : "Cylinder.001",
            "primitives" : [
                {
                    "attributes" : {
                        "POSITION" : 0,
                        "NORMAL" : 1
                    },
                    "indices" : 2
                }
            ]
        },
        {
            "name" : "Cylinder",
            "primitives" : [
                {
                    "attributes" : {
                        "POSITION" : 3,
                        "NORMAL" : 4
                    },
                    "indices" : 2
                }
            ]
        },
        {
            "name" : "Cube.014",
            "primitives" : [
                {
                    "attributes" : {
                        "POSITION" : 5,
                        "NORMAL" : 6
                    },
                    "indices" : 7
                }
            ]
        },
        {
            "name" : "Cube.013",
            "primitives" : [
                {
                    "attributes" : {
                        "POSITION" : 8,
                        "NORMAL" : 9
                    },
                    "indices" : 7
                }
            ]
        },
        {
            "name" : "Cube.012",
            "primitives" : [
                {
                    "attributes" : {
                        "POSITION" : 10,
                        "NORMAL" : 11
                    },
                    "indices" : 7
                }
            ]
        },
        {
            "name" : "Cube.011",
            "primitives" : [
                {
                    "attributes" : {
                        "POSITION" : 12,
                        "NORMAL" : 13
                    },
                    "indices" : 14
                }
            ]
        },
        {
            "name" : "Cube.010",
            "primitives" : [
                {
                    "attributes" : {
                        "POSITION" : 15,
                        "NORMAL" : 16
                    },
                    "indices" : 14
                }
            ]
        },
        {
            "name" : "Cube.009",
            "primitives" : [
                {
                    "attributes" : {
                        "POSITION" : 17,
                        "NORMAL" : 18
                    },
                    "indices" : 14
                }
            ]
        },
        {
            "name" : "Cube.005",
            "primitives" : [
                {
                    "attributes" : {
                        "POSITION" : 19,
                        "NORMAL" : 20
                    },
                    "indices" : 21
                }
            ]
        },
        {
            "name" : "Cube.004",
            "primitives" : [
                {
                    "attributes" : {
                        "POSITION" : 22,
                        "NORMAL" : 23
                    },
                    "indices" : 24
                }
            ]
        },
        {
            "name" : "Cube.001",
            "primitives" : [
                {
                    "attributes" : {
                        "POSITION" : 25,
                        "NORMAL" : 26
                    },
                    "indices" : 21
                }
            ]
        },
        {
            "name" : "Cube",
            "primitives" : [
                {
                    "attributes" : {
                        "POSITION" : 27,
                        "NORMAL" : 28
                    },
                    "indices" : 29,
                    "material" : 0
                }
            ]
        }
    ],
    "accessors" : [
        {
            "bufferView" : 0,
            "componentType" : 5126,
            "count" : 384,
            "max" : [
                1,
                1,
                1
            ],
            "min" : [
                -1,
                -1,
                -43.11499786376953
            ],
            "type" : "VEC3"
        },
        {
            "bufferView" : 1,
            "componentType" : 5126,
            "count" : 384,
            "type" : "VEC3"
        },
        {
            "bufferView" : 2,
            "componentType" : 5123,
            "count" : 744,
            "type" : "SCALAR"
        },
        {
            "bufferView" : 3,
            "componentType" : 5126,
            "count" : 384,
            "max" : [
                1,
                1,
                1
            ],
            "min" : [
                -1,
                -1,
                -43.11499786376953
            ],
            "type" : "VEC3"
        },
        {
            "bufferView" : 4,
            "componentType" : 5126,
            "count" : 384,
            "type" : "VEC3"
        },
        {
            "bufferView" : 5,
            "componentType" : 5126,
            "count" : 96,
            "max" : [
                1,
                1,
                1
            ],
            "min" : [
                -1,
                -1,
                -1
            ],
            "type" : "VEC3"
        },
        {
            "bufferView" : 6,
            "componentType" : 5126,
            "count" : 96,
            "type" : "VEC3"
        },
        {
            "bufferView" : 7,
            "componentType" : 5123,
            "count" : 564,
            "type" : "SCALAR"
        },
        {
            "bufferView" : 8,
            "componentType" : 5126,
            "count" : 96,
            "max" : [
                1,
                1,
                1
            ],
            "min" : [
                -1,
                -1,
                -1
            ],
            "type" : "VEC3"
        },
        {
            "bufferView" : 9,
            "componentType" : 5126,
            "count" : 96,
            "type" : "VEC3"
        },
        {
            "bufferView" : 10,
            "componentType" : 5126,
            "count" : 96,
            "max" : [
                1,
                1,
                1
            ],
            "min" : [
                -1,
                -1,
                -1
            ],
            "type" : "VEC3"
        },
        {
            "bufferView" : 11,
            "componentType" : 5126,
            "count" : 96,
            "type" : "VEC3"
        },
        {
            "bufferView" : 12,
            "componentType" : 5126,
            "count" : 56,
            "max" : [
                1,
                1,
                1
            ],
            "min" : [
                -1,
                -1,
                -1
            ],
            "type" : "VEC3"
        },
        {
            "bufferView" : 13,
            "componentType" : 5126,
            "count" : 56,
            "type" : "VEC3"
        },
        {
            "bufferView" : 14,
            "componentType" : 5123,
            "count" : 324,
            "type" : "SCALAR"
        },
        {
            "bufferView" : 15,
            "componentType" : 5126,
            "count" : 56,
            "max" : [
                1,
                1,
                1
            ],
            "min" : [
                -1,
                -1,
                -1
            ],
            "type" : "VEC3"
        },
        {
            "bufferView" : 16,
            "componentType" : 5126,
            "count" : 56,
            "type" : "VEC3"
        },
        {
            "bufferView" : 17,
            "componentType" : 5126,
            "count" : 56,
            "max" : [
                1,
                1,
                1
            ],
            "min" : [
                -1,
                -1,
                -1
            ],
            "type" : "VEC3"
        },
        {
            "bufferView" : 18,
            "componentType" : 5126,
            "count" : 56,
            "type" : "VEC3"
        },
        {
            "bufferView" : 19,
            "componentType" : 5126,
            "count" : 24,
            "max" : [
                1,
                1,
                1
            ],
            "min" : [
                -1,
                -1,
                -1
            ],
            "type" : "VEC3"
        },
        {
            "bufferView" : 20,
            "componentType" : 5126,
            "count" : 24,
            "type" : "VEC3"
        },
        {
            "bufferView" : 21,
            "componentType" : 5123,
            "count" : 132,
            "type" : "SCALAR"
        },
        {
            "bufferView" : 22,
            "componentType" : 5126,
            "count" : 332,
            "max" : [
                1,
                1,
                1
            ],
            "min" : [
                -1,
                -1,
                -1
            ],
            "type" : "VEC3"
        },
        {
            "bufferView" : 23,
            "componentType" : 5126,
            "count" : 332,
            "type" : "VEC3"
        },
        {
            "bufferView" : 24,
            "componentType" : 5123,
            "count" : 612,
            "type" : "SCALAR"
        },
        {
            "bufferView" : 25,
            "componentType" : 5126,
            "count" : 24,
            "max" : [
                1,
                1,
                1
            ],
            "min" : [
                -1,
                -1,
                -1
            ],
            "type" : "VEC3"
        },
        {
            "bufferView" : 26,
            "componentType" : 5126,
            "count" : 24,
            "type" : "VEC3"
        },
        {
            "bufferView" : 27,
            "componentType" : 5126,
            "count" : 48,
            "max" : [
                1.0000003576278687,
                0.15341432392597198,
                0.4250691533088684
            ],
            "min" : [
                -1.0000003576278687,
                0.002047136425971985,
                -0.4151040017604828
            ],
            "type" : "VEC3"
        },
        {
            "bufferView" : 28,
            "componentType" : 5126,
            "count" : 48,
            "type" : "VEC3"
        },
        {
            "bufferView" : 29,
            "componentType" : 5123,
            "count" : 168,
            "type" : "SCALAR"
        }
    ],
    "bufferViews" : [
        {
            "buffer" : 0,
            "byteLength" : 4608,
            "byteOffset" : 0
        },
        {
            "buffer" : 0,
            "byteLength" : 4608,
            "byteOffset" : 4608
        },
        {
            "buffer" : 0,
            "byteLength" : 1488,
            "byteOffset" : 9216
        },
        {
            "buffer" : 0,
            "byteLength" : 4608,
            "byteOffset" : 10704
        },
        {
            "buffer" : 0,
            "byteLength" : 4608,
            "byteOffset" : 15312
        },
        {
            "buffer" : 0,
            "byteLength" : 1152,
            "byteOffset" : 19920
        },
        {
            "buffer" : 0,
            "byteLength" : 1152,
            "byteOffset" : 21072
        },
        {
            "buffer" : 0,
            "byteLength" : 1128,
            "byteOffset" : 22224
        },
        {
            "buffer" : 0,
            "byteLength" : 1152,
            "byteOffset" : 23352
        },
        {
            "buffer" : 0,
            "byteLength" : 1152,
            "byteOffset" : 24504
        },
        {
            "buffer" : 0,
            "byteLength" : 1152,
            "byteOffset" : 25656
        },
        {
            "buffer" : 0,
            "byteLength" : 1152,
            "byteOffset" : 26808
        },
        {
            "buffer" : 0,
            "byteLength" : 672,
            "byteOffset" : 27960
        },
        {
            "buffer" : 0,
            "byteLength" : 672,
            "byteOffset" : 28632
        },
        {
            "buffer" : 0,
            "byteLength" : 648,
            "byteOffset" : 29304
        },
        {
            "buffer" : 0,
            "byteLength" : 672,
            "byteOffset" : 29952
        },
        {
            "buffer" : 0,
            "byteLength" : 672,
            "byteOffset" : 30624
        },
        {
            "buffer" : 0,
            "byteLength" : 672,
            "byteOffset" : 31296
        },
        {
            "buffer" : 0,
            "byteLength" : 672,
            "byteOffset" : 31968
        },
        {
            "buffer" : 0,
            "byteLength" : 288,
            "byteOffset" : 32640
        },
        {
            "buffer" : 0,
            "byteLength" : 288,
            "byteOffset" : 32928
        },
        {
            "buffer" : 0,
            "byteLength" : 264,
            "byteOffset" : 33216
        },
        {
            "buffer" : 0,
            "byteLength" : 3984,
            "byteOffset" : 33480
        },
        {
            "buffer" : 0,
            "byteLength" : 3984,
            "byteOffset" : 37464
        },
        {
            "buffer" : 0,
            "byteLength" : 1224,
            "byteOffset" : 41448
        },
        {
            "buffer" : 0,
            "byteLength" : 288,
            "byteOffset" : 42672
        },
        {
            "buffer" : 0,
            "byteLength" : 288,
            "byteOffset" : 42960
        },
        {
            "buffer" : 0,
            "byteLength" : 576,
            "byteOffset" : 43248
        },
        {
            "buffer" : 0,
            "byteLength" : 576,
            "byteOffset" : 43824
        },
        {
            "buffer" : 0,
            "byteLength" : 336,
            "byteOffset" : 44400
        }
    ],
    "buffers" : [
        {
            "byteLength" : 44736,
            "uri" : "data:application/octet-stream;base64,"
        }
    ]
}
