{
    "asset" : {
        "generator" : "Khronos glTF Blender I/O v1.7.33",
        "version" : "2.0"
    },
    "scene" : 0,
    "scenes" : [
        {
            "name" : "ma_table",
            "nodes" : [
                0,
                1,
                2,
                3,
                4,
                5,
                6,
                7,
                8,
                9,
                10,
                11,
                12,
                13,
                14
            ]
        }
    ],
    "nodes" : [
        {
            "name" : "Cylinder2",
            "scale" : [
                0.05740000680088997,
                0.05740000680088997,
                0.05740000680088997
            ],
            "translation" : [
                0.1665000021457672,
                0.6482999920845032,
                0.12770000100135803
            ]
        },
        {
            "name" : "Box4",
            "rotation" : [
                0,
                -0.7065085768699646,
                0,
                0.707704484462738
            ],
            "scale" : [
                0.4771000146865845,
                0.0421999990940094,
                0.4771000146865845
            ],
            "translation" : [
                -0.021199999377131462,
                0.25540000200271606,
                -0.578499972820282
            ]
        },
        {
            "name" : "assiette2",
            "scale" : [
                0.3073999881744385,
                0.011099999770522118,
                0.3073999881744385
            ],
            "translation" : [
                -0.01730000041425228,
                0.6266000270843506,
                -0.26460000872612
            ]
        },
        {
            "name" : "Box11",
            "rotation" : [
                0,
                0,
                -0.9998893737792969,
                0.014873088337481022
            ],
            "scale" : [
                0.03290000185370445,
                0.0032999999821186066,
                0.17710000276565552
            ],
            "translation" : [
                -0.2190999984741211,
                0.6158000230789185,
                -0.2207999974489212
            ]
        },
        {
            "mesh" : 0,
            "name" : "Box",
            "rotation" : [
                -0.03815873712301254,
                0,
                0,
                0.9992716908454895
            ],
            "scale" : [
                16.399438858032227,
                0.6969761848449707,
                8.199719429016113
            ],
            "translation" : [
                0.05810000002384186,
                9.753717422485352,
                -0.08969999849796295
            ]
        },
        {
            "name" : "Cylinder3",
            "scale" : [
                0.05740000680088997,
                0.05740000680088997,
                0.05740000680088997
            ],
            "translation" : [
                -0.3165000081062317,
                0.6425999999046326,
                0.2125999927520752
            ]
        },
        {
            "name" : "LightPreset.001",
            "translation" : [
                -0.07500000298023224,
                0.6454499959945679,
                0.1701499968767166
            ]
        },
        {
            "name" : "Cylinder4",
            "scale" : [
                0.05740000680088997,
                0.05740000680088997,
                0.05740000680088997
            ],
            "translation" : [
                -0.28690001368522644,
                0.6434999704360962,
                0.14839999377727509
            ]
        },
        {
            "name" : "Box3",
            "rotation" : [
                0,
                0.7046614289283752,
                0,
                0.7095437049865723
            ],
            "scale" : [
                0.4770999848842621,
                0.0421999990940094,
                0.4770999848842621
            ],
            "translation" : [
                -0.01889999955892563,
                0.25540000200271606,
                0.571399986743927
            ]
        },
        {
            "name" : "Cylinder5",
            "scale" : [
                0.05740000680088997,
                0.05740000680088997,
                0.05740000680088997
            ],
            "translation" : [
                -0.15060000121593475,
                0.6434999704360962,
                -0.0860000029206276
            ]
        },
        {
            "name" : "Box12",
            "rotation" : [
                0.7107810974121094,
                -0.01088012382388115,
                -0.7032463550567627,
                0.010790342465043068
            ],
            "scale" : [
                0.03290000185370445,
                0.003300000447779894,
                0.1771000176668167
            ],
            "translation" : [
                0.4350999891757965,
                0.6158000230789185,
                -0.19009999930858612
            ]
        },
        {
            "name" : "CameraPreset.001",
            "translation" : [
                -0.07500000298023224,
                0.6454499959945679,
                0.1701499968767166
            ]
        },
        {
            "name" : "CameraPreset",
            "translation" : [
                -0.07500000298023224,
                0.6454499959945679,
                0.1701499968767166
            ]
        },
        {
            "name" : "assiette1",
            "scale" : [
                0.3073999881744385,
                0.011099999770522118,
                0.3073999881744385
            ],
            "translation" : [
                0.4731999933719635,
                0.6255000233650208,
                0.012400000356137753
            ]
        },
        {
            "name" : "LightPreset",
            "translation" : [
                -0.07500000298023224,
                0.6454499959945679,
                0.1701499968767166
            ]
        }
    ],
    "animations" : [
        {
            "channels" : [
                {
                    "sampler" : 0,
                    "target" : {
                        "node" : 11,
                        "path" : "scale"
                    }
                },
                {
                    "sampler" : 1,
                    "target" : {
                        "node" : 11,
                        "path" : "translation"
                    }
                },
                {
                    "sampler" : 2,
                    "target" : {
                        "node" : 11,
                        "path" : "rotation"
                    }
                }
            ],
            "name" : "CameraPreset.001Action",
            "samplers" : [
                {
                    "input" : 4,
                    "interpolation" : "LINEAR",
                    "output" : 5
                },
                {
                    "input" : 4,
                    "interpolation" : "LINEAR",
                    "output" : 6
                },
                {
                    "input" : 7,
                    "interpolation" : "LINEAR",
                    "output" : 8
                }
            ]
        },
        {
            "channels" : [
                {
                    "sampler" : 0,
                    "target" : {
                        "node" : 12,
                        "path" : "scale"
                    }
                },
                {
                    "sampler" : 1,
                    "target" : {
                        "node" : 12,
                        "path" : "translation"
                    }
                },
                {
                    "sampler" : 2,
                    "target" : {
                        "node" : 12,
                        "path" : "rotation"
                    }
                }
            ],
            "name" : "CameraPresetAction",
            "samplers" : [
                {
                    "input" : 4,
                    "interpolation" : "LINEAR",
                    "output" : 9
                },
                {
                    "input" : 4,
                    "interpolation" : "LINEAR",
                    "output" : 10
                },
                {
                    "input" : 7,
                    "interpolation" : "LINEAR",
                    "output" : 11
                }
            ]
        }
    ],
    "materials" : [
        {
            "doubleSided" : true,
            "name" : "Material",
            "pbrMetallicRoughness" : {
                "baseColorTexture" : {
                    "index" : 0
                },
                "metallicFactor" : 0,
                "roughnessFactor" : 0.5
            }
        }
    ],
    "meshes" : [
        {
            "name" : "Box",
            "primitives" : [
                {
                    "attributes" : {
                        "POSITION" : 0,
                        "NORMAL" : 1,
                        "TEXCOORD_0" : 2
                    },
                    "indices" : 3,
                    "material" : 0
                }
            ]
        }
    ],
    "textures" : [
        {
            "sampler" : 0,
            "source" : 0
        }
    ],
    "images" : [
        {
            "bufferView" : 4,
            "mimeType" : "image/jpeg",
            "name" : "Kayu"
        }
    ],
    "accessors" : [
        {
            "bufferView" : 0,
            "componentType" : 5126,
            "count" : 128,
            "max" : [
                0.5,
                0.5,
                0.5
            ],
            "min" : [
                -0.5,
                -11.388325691223145,
                -0.5
            ],
            "type" : "VEC3"
        },
        {
            "bufferView" : 1,
            "componentType" : 5126,
            "count" : 128,
            "type" : "VEC3"
        },
        {
            "bufferView" : 2,
            "componentType" : 5126,
            "count" : 128,
            "type" : "VEC2"
        },
        {
            "bufferView" : 3,
            "componentType" : 5123,
            "count" : 276,
            "type" : "SCALAR"
        },
        {
            "bufferView" : 5,
            "componentType" : 5126,
            "count" : 2,
            "max" : [
                12.413793103448276
            ],
            "min" : [
                0
            ],
            "type" : "SCALAR"
        },
        {
            "bufferView" : 6,
            "componentType" : 5126,
            "count" : 2,
            "type" : "VEC3"
        },
        {
            "bufferView" : 7,
            "componentType" : 5126,
            "count" : 2,
            "type" : "VEC3"
        },
        {
            "bufferView" : 8,
            "componentType" : 5126,
            "count" : 361,
            "max" : [
                12.413793103448276
            ],
            "min" : [
                0
            ],
            "type" : "SCALAR"
        },
        {
            "bufferView" : 9,
            "componentType" : 5126,
            "count" : 361,
            "type" : "VEC4"
        },
        {
            "bufferView" : 10,
            "componentType" : 5126,
            "count" : 2,
            "type" : "VEC3"
        },
        {
            "bufferView" : 11,
            "componentType" : 5126,
            "count" : 2,
            "type" : "VEC3"
        },
        {
            "bufferView" : 12,
            "componentType" : 5126,
            "count" : 361,
            "type" : "VEC4"
        }
    ],
    "bufferViews" : [
        {
            "buffer" : 0,
            "byteLength" : 1536,
            "byteOffset" : 0
        },
        {
            "buffer" : 0,
            "byteLength" : 1536,
            "byteOffset" : 1536
        },
        {
            "buffer" : 0,
            "byteLength" : 1024,
            "byteOffset" : 3072
        },
        {
            "buffer" : 0,
            "byteLength" : 552,
            "byteOffset" : 4096
        },
        {
            "buffer" : 0,
            "byteLength" : 413087,
            "byteOffset" : 4648
        },
        {
            "buffer" : 0,
            "byteLength" : 8,
            "byteOffset" : 417736
        },
        {
            "buffer" : 0,
            "byteLength" : 24,
            "byteOffset" : 417744
        },
        {
            "buffer" : 0,
            "byteLength" : 24,
            "byteOffset" : 417768
        },
        {
            "buffer" : 0,
            "byteLength" : 1444,
            "byteOffset" : 417792
        },
        {
            "buffer" : 0,
            "byteLength" : 5776,
            "byteOffset" : 419236
        },
        {
            "buffer" : 0,
            "byteLength" : 24,
            "byteOffset" : 425012
        },
        {
            "buffer" : 0,
            "byteLength" : 24,
            "byteOffset" : 425036
        },
        {
            "buffer" : 0,
            "byteLength" : 5776,
            "byteOffset" : 425060
        }
    ],
    "samplers" : [
        {
            "magFilter" : 9729,
            "minFilter" : 9987
        }
    ],
    "buffers" : [
        {
            "byteLength" : 430836,
            "uri" : "data:application/octet-stream;base64,"
        }
    ]
}
