{
    "asset" : {
        "generator" : "Khronos glTF Blender I/O v1.7.33",
        "version" : "2.0"
    },
    "scene" : 0,
    "scenes" : [
        {
            "name" : "Wooden_Coffe_Table",
            "nodes" : [
                2
            ]
        }
    ],
    "nodes" : [
        {
            "mesh" : 0,
            "name" : "Null",
            "scale" : [
                0.009999999776482582,
                0.009999999776482582,
                0.009999999776482582
            ],
            "translation" : [
                0,
                0.41525399684906006,
                0
            ]
        },
        {
            "mesh" : 1,
            "name" : "top",
            "scale" : [
                0.009999999776482582,
                0.009999999776482582,
                0.009999999776482582
            ],
            "translation" : [
                0,
                1.2457599639892578,
                0
            ]
        },
        {
            "children" : [
                0,
                1
            ],
            "name" : "coffe_table",
            "scale" : [
                6.224294662475586,
                6.224294662475586,
                6.224294662475586
            ],
            "translation" : [
                0,
                0.2057773768901825,
                0
            ]
        }
    ],
    "materials" : [
        {
            "doubleSided" : true,
            "name" : "Material",
            "pbrMetallicRoughness" : {
                "baseColorTexture" : {
                    "index" : 0
                },
                "metallicFactor" : 0,
                "roughnessFactor" : 0.5
            }
        },
        {
            "doubleSided" : true,
            "name" : "Material.001",
            "pbrMetallicRoughness" : {
                "baseColorTexture" : {
                    "index" : 1
                },
                "metallicFactor" : 0,
                "roughnessFactor" : 0.5
            }
        }
    ],
    "meshes" : [
        {
            "name" : "Null",
            "primitives" : [
                {
                    "attributes" : {
                        "POSITION" : 0,
                        "NORMAL" : 1,
                        "TEXCOORD_0" : 2
                    },
                    "indices" : 3,
                    "material" : 0
                }
            ]
        },
        {
            "name" : "top",
            "primitives" : [
                {
                    "attributes" : {
                        "POSITION" : 4,
                        "NORMAL" : 5,
                        "TEXCOORD_0" : 6,
                        "TEXCOORD_1" : 7
                    },
                    "indices" : 8,
                    "material" : 1
                }
            ]
        }
    ],
    "textures" : [
        {
            "sampler" : 0,
            "source" : 0
        },
        {
            "sampler" : 0,
            "source" : 1
        }
    ],
    "images" : [
        {
            "bufferView" : 4,
            "mimeType" : "image/jpeg",
            "name" : "Kayu"
        },
        {
            "bufferView" : 10,
            "mimeType" : "image/jpeg",
            "name" : "Ivory-Duo-Architextures"
        }
    ],
    "accessors" : [
        {
            "bufferView" : 0,
            "componentType" : 5126,
            "count" : 1450,
            "max" : [
                80.4038314819336,
                77.99324798583984,
                49.52043914794922
            ],
            "min" : [
                -80.2929458618164,
                -60.423797607421875,
                -90.26006317138672
            ],
            "type" : "VEC3"
        },
        {
            "bufferView" : 1,
            "componentType" : 5126,
            "count" : 1450,
            "type" : "VEC3"
        },
        {
            "bufferView" : 2,
            "componentType" : 5126,
            "count" : 1450,
            "type" : "VEC2"
        },
        {
            "bufferView" : 3,
            "componentType" : 5123,
            "count" : 4938,
            "type" : "SCALAR"
        },
        {
            "bufferView" : 5,
            "componentType" : 5126,
            "count" : 1380,
            "max" : [
                113.27655792236328,
                5.08962869644165,
                113.27655792236328
            ],
            "min" : [
                -113.27655792236328,
                -5.08962869644165,
                -113.27655792236328
            ],
            "type" : "VEC3"
        },
        {
            "bufferView" : 6,
            "componentType" : 5126,
            "count" : 1380,
            "type" : "VEC3"
        },
        {
            "bufferView" : 7,
            "componentType" : 5126,
            "count" : 1380,
            "type" : "VEC2"
        },
        {
            "bufferView" : 8,
            "componentType" : 5126,
            "count" : 1380,
            "type" : "VEC2"
        },
        {
            "bufferView" : 9,
            "componentType" : 5123,
            "count" : 5184,
            "type" : "SCALAR"
        }
    ],
    "bufferViews" : [
        {
            "buffer" : 0,
            "byteLength" : 17400,
            "byteOffset" : 0
        },
        {
            "buffer" : 0,
            "byteLength" : 17400,
            "byteOffset" : 17400
        },
        {
            "buffer" : 0,
            "byteLength" : 11600,
            "byteOffset" : 34800
        },
        {
            "buffer" : 0,
            "byteLength" : 9876,
            "byteOffset" : 46400
        },
        {
            "buffer" : 0,
            "byteLength" : 413087,
            "byteOffset" : 56276
        },
        {
            "buffer" : 0,
            "byteLength" : 16560,
            "byteOffset" : 469364
        },
        {
            "buffer" : 0,
            "byteLength" : 16560,
            "byteOffset" : 485924
        },
        {
            "buffer" : 0,
            "byteLength" : 11040,
            "byteOffset" : 502484
        },
        {
            "buffer" : 0,
            "byteLength" : 11040,
            "byteOffset" : 513524
        },
        {
            "buffer" : 0,
            "byteLength" : 10368,
            "byteOffset" : 524564
        },
        {
            "buffer" : 0,
            "byteLength" : 1387133,
            "byteOffset" : 534932
        }
    ],
    "samplers" : [
        {
            "magFilter" : 9729,
            "minFilter" : 9987
        }
    ],
    "buffers" : [
        {
            "byteLength" : 1922068,
            "uri" : "data:application/octet-stream;base64,"
        }
    ]
}
